<svg width="40" height="40" viewBox="0 0 40 40" fill="none" xmlns="http://www.w3.org/2000/svg">
<circle opacity="0.1" cx="20" cy="20" r="20" fill="#F9AD5D"/>
<path d="M29 21.2554C26.2207 22.3805 23.1827 23 20 23C16.8173 23 13.7793 22.3805 11 21.2554M24 14V12C24 10.8954 23.1046 10 22 10H18C16.8954 10 16 10.8954 16 12V14M20 20H20.01M13 28H27C28.1046 28 29 27.1046 29 26V16C29 14.8954 28.1046 14 27 14H13C11.8954 14 11 14.8954 11 16V26C11 27.1046 11.8954 28 13 28Z" stroke="#F9AD5D" stroke-width="2" stroke-linecap="round" stroke-linejoin="round"/>
</svg>
