<svg width="40" height="40" viewBox="0 0 40 40" fill="none" xmlns="http://www.w3.org/2000/svg">
<circle opacity="0.1" cx="20" cy="20" r="20" fill="#6E61E8"/>
<path d="M20 22L29 17L20 12L11 17L20 22ZM20 22L26.1591 18.5783C26.7017 19.9466 27 21.4384 27 22.9999C27 23.7013 26.9398 24.3885 26.8244 25.0569C24.2143 25.3106 21.849 26.4006 20 28.0555C18.151 26.4006 15.7857 25.3106 13.1756 25.0569C13.0602 24.3885 13 23.7012 13 22.9999C13 21.4384 13.2982 19.9466 13.8409 18.5782L20 22ZM16 27.9999V20.5L20 18.2778" stroke="#6E61E8" stroke-width="2" stroke-linecap="round" stroke-linejoin="round"/>
</svg>
