<svg width="40" height="40" viewBox="0 0 40 40" fill="none" xmlns="http://www.w3.org/2000/svg">
<circle opacity="0.1" cx="20" cy="20" r="20" fill="#4ECDC4"/>
<path d="M20 19C19.4477 19 19 19.4477 19 20C19 20.5523 19.4477 21 20 21V19ZM23 21C23.5523 21 24 20.5523 24 20C24 19.4477 23.5523 19 23 19V21ZM20 23C19.4477 23 19 23.4477 19 24C19 24.5523 19.4477 25 20 25V23ZM23 25C23.5523 25 24 24.5523 24 24C24 23.4477 23.5523 23 23 23V25ZM17 19C16.4477 19 16 19.4477 16 20C16 20.5523 16.4477 21 17 21V19ZM17.01 21C17.5623 21 18.01 20.5523 18.01 20C18.01 19.4477 17.5623 19 17.01 19V21ZM17 23C16.4477 23 16 23.4477 16 24C16 24.5523 16.4477 25 17 25V23ZM17.01 25C17.5623 25 18.01 24.5523 18.01 24C18.01 23.4477 17.5623 23 17.01 23V25ZM26 15V27H28V15H26ZM25 28H15V30H25V28ZM14 27V15H12V27H14ZM15 14H17V12H15V14ZM23 14H25V12H23V14ZM15 28C14.4477 28 14 27.5523 14 27H12C12 28.6569 13.3431 30 15 30V28ZM26 27C26 27.5523 25.5523 28 25 28V30C26.6569 30 28 28.6569 28 27H26ZM28 15C28 13.3431 26.6569 12 25 12V14C25.5523 14 26 14.4477 26 15H28ZM14 15C14 14.4477 14.4477 14 15 14V12C13.3431 12 12 13.3431 12 15H14ZM20 21H23V19H20V21ZM20 25H23V23H20V25ZM19 12H21V10H19V12ZM21 14H19V16H21V14ZM19 14C18.4477 14 18 13.5523 18 13H16C16 14.6569 17.3431 16 19 16V14ZM22 13C22 13.5523 21.5523 14 21 14V16C22.6569 16 24 14.6569 24 13H22ZM21 12C21.5523 12 22 12.4477 22 13H24C24 11.3431 22.6569 10 21 10V12ZM19 10C17.3431 10 16 11.3431 16 13H18C18 12.4477 18.4477 12 19 12V10ZM17 21H17.01V19H17V21ZM17 25H17.01V23H17V25Z" fill="#4ECDC4"/>
</svg>
