<svg width="88" height="20" viewBox="0 0 88 20" fill="none" xmlns="http://www.w3.org/2000/svg">
<path d="M7.26155 19.3442C6.23769 19.3442 5.25354 19.1854 4.30911 18.8676C3.3735 18.541 2.55264 18.0776 1.84653 17.4774C1.14041 16.8684 0.632893 16.1402 0.323967 15.2929L3.35585 14.1808C3.47942 14.5338 3.73098 14.856 4.11051 15.1473C4.49005 15.4385 4.95344 15.6724 5.50068 15.849C6.04792 16.0255 6.63488 16.1138 7.26155 16.1138C7.90588 16.1138 8.50608 16.0167 9.06215 15.8225C9.62704 15.6195 10.0816 15.3414 10.4258 14.9884C10.7701 14.6265 10.9422 14.2072 10.9422 13.7306C10.9422 13.2452 10.7612 12.848 10.3994 12.539C10.0375 12.2213 9.57408 11.9697 9.00919 11.7844C8.4443 11.599 7.86175 11.4578 7.26155 11.3607C5.94641 11.1577 4.76808 10.8444 3.72656 10.4207C2.68504 9.99702 1.85977 9.41007 1.25074 8.65982C0.650546 7.90957 0.350446 6.93866 0.350446 5.74709C0.350446 4.62613 0.672612 3.6464 1.31694 2.80788C1.96127 1.96937 2.80861 1.31621 3.85896 0.848412C4.90931 0.380611 6.0435 0.14671 7.26155 0.14671C8.2766 0.14671 9.25633 0.305586 10.2008 0.623338C11.1452 0.941089 11.9705 1.40448 12.6766 2.0135C13.3915 2.62253 13.9035 3.35512 14.2124 4.21129L11.1673 5.31018C11.0437 4.95712 10.7921 4.63496 10.4126 4.34369C10.0331 4.05241 9.56967 3.82292 9.02243 3.65522C8.47519 3.47869 7.88823 3.39043 7.26155 3.39043C6.63488 3.3816 6.03909 3.48311 5.4742 3.69494C4.91813 3.89795 4.46357 4.17598 4.11051 4.52904C3.75745 4.8821 3.58093 5.28811 3.58093 5.74709C3.58093 6.33846 3.74422 6.7842 4.07079 7.0843C4.4062 7.3844 4.85193 7.60506 5.408 7.74628C5.96407 7.87868 6.58192 8.00225 7.26155 8.11699C8.49726 8.31117 9.64028 8.63775 10.6906 9.09673C11.741 9.5557 12.5839 10.1691 13.2194 10.937C13.8549 11.6961 14.1727 12.6273 14.1727 13.7306C14.1727 14.8516 13.8549 15.8357 13.2194 16.6831C12.5839 17.5216 11.741 18.1747 10.6906 18.6425C9.64028 19.1103 8.49726 19.3442 7.26155 19.3442ZM16.8022 12.5788V5.76033H20.0327V12.5258C20.0327 13.2054 20.1739 13.8277 20.4563 14.3926C20.7388 14.9575 21.1316 15.4076 21.6347 15.743C22.1378 16.0696 22.7115 16.2329 23.3558 16.2329C24.0002 16.2329 24.5518 16.0696 25.0108 15.743C25.4786 15.4076 25.8361 14.9575 26.0832 14.3926C26.3392 13.8277 26.4671 13.2054 26.4671 12.5258V5.76033H29.6976V19H26.4671V17.4245C26.0346 18.007 25.5095 18.4792 24.8916 18.8411C24.2826 19.1942 23.5897 19.3707 22.813 19.3707C21.5861 19.3707 20.5269 19.0662 19.6355 18.4572C18.744 17.8393 18.0511 17.0185 17.5568 15.9946C17.0626 14.9619 16.811 13.8233 16.8022 12.5788ZM40.936 9.04377C40.6977 8.88489 40.4373 8.75691 40.1549 8.65982C39.8813 8.56273 39.5768 8.51418 39.2414 8.51418C38.597 8.51418 38.041 8.68188 37.5732 9.01729C37.1142 9.35269 36.7611 9.80284 36.514 10.3677C36.2668 10.9238 36.1433 11.5417 36.1433 12.2213V19H32.8863V5.76033H36.1168V7.32261C36.5581 6.74006 37.0833 6.27668 37.6923 5.93245C38.3102 5.58821 39.0075 5.4161 39.7842 5.4161C40.0843 5.4161 40.3711 5.42492 40.6448 5.44258C40.9272 5.46023 41.1964 5.50878 41.4524 5.58821L40.936 9.04377ZM52.1233 19H47.9529L43.1336 5.74709H46.5759L50.0447 15.2797L53.5003 5.74709H56.9426L52.1233 19ZM64.0016 19.3442C62.7836 19.3442 61.6714 19.0309 60.6652 18.4042C59.6678 17.7775 58.869 16.9346 58.2688 15.8754C57.6775 14.8163 57.3818 13.6468 57.3818 12.3669C57.3818 11.4048 57.5539 10.5045 57.8981 9.66603C58.2423 8.81869 58.7146 8.07727 59.3148 7.44177C59.9238 6.79744 60.6299 6.29433 61.4331 5.93245C62.2363 5.57056 63.0925 5.38962 64.0016 5.38962C65.0343 5.38962 65.9787 5.61028 66.8349 6.0516C67.6999 6.4841 68.4325 7.07988 69.0327 7.83896C69.6329 8.59803 70.0698 9.46302 70.3434 10.4339C70.617 11.4048 70.6788 12.4199 70.5288 13.4791H60.8506C60.9741 13.9733 61.1771 14.4191 61.4596 14.8163C61.742 15.2046 62.0995 15.518 62.532 15.7563C62.9645 15.9858 63.4544 16.1049 64.0016 16.1138C64.5665 16.1226 65.0784 15.9902 65.5374 15.7166C66.0052 15.4341 66.3936 15.0546 66.7025 14.578L69.9992 15.3459C69.4608 16.5198 68.6576 17.4819 67.5896 18.2321C66.5216 18.9735 65.3256 19.3442 64.0016 19.3442ZM60.7446 11.0562H67.2586C67.1615 10.5266 66.9541 10.05 66.6363 9.62631C66.3274 9.19382 65.9434 8.84959 65.4844 8.59362C65.0255 8.33765 64.5312 8.20967 64.0016 8.20967C63.472 8.20967 62.9822 8.33765 62.532 8.59362C62.0819 8.84076 61.6979 9.18058 61.3802 9.61307C61.0712 10.0367 60.8594 10.5178 60.7446 11.0562ZM72.3985 5.76033H75.6289V19H72.3985V5.76033ZM74.0269 3.78762C73.5591 3.78762 73.1619 3.63316 72.8354 3.32423C72.5088 3.00648 72.3455 2.60929 72.3455 2.13266C72.3455 1.66486 72.5088 1.27208 72.8354 0.95433C73.1619 0.636577 73.5591 0.477701 74.0269 0.477701C74.4947 0.477701 74.8875 0.636577 75.2053 0.95433C75.5318 1.27208 75.6951 1.66486 75.6951 2.13266C75.6951 2.60929 75.5318 3.00648 75.2053 3.32423C74.8875 3.63316 74.4947 3.78762 74.0269 3.78762ZM87.1491 8.99081H84.5806V19H81.3501V8.99081H79.3907V5.76033H81.3501V1.60307H84.5806V5.76033H87.1491V8.99081Z" fill="#6E61E8"/>
</svg>
